<?xml version="1.0" encoding="UTF-8" standalone="no"?>
<!-- Created with Inkscape (http://www.inkscape.org/) -->

<svg
   xmlns:dc="http://purl.org/dc/elements/1.1/"
   xmlns:cc="http://creativecommons.org/ns#"
   xmlns:rdf="http://www.w3.org/1999/02/22-rdf-syntax-ns#"
   xmlns:svg="http://www.w3.org/2000/svg"
   xmlns="http://www.w3.org/2000/svg"
   xmlns:sodipodi="http://sodipodi.sourceforge.net/DTD/sodipodi-0.dtd"
   xmlns:inkscape="http://www.inkscape.org/namespaces/inkscape"
   width="100"
   height="65"
   id="svg2"
   version="1.1"
   inkscape:version="0.48.4 r9939"
   sodipodi:docname="scanly.svg"
   inkscape:export-filename="/home/daniel/Code/NodeJS/scanly/public/img/scanly.png"
   inkscape:export-xdpi="90"
   inkscape:export-ydpi="90">
  <defs
     id="defs4">
    <marker
       inkscape:stockid="Arrow2Lend"
       orient="auto"
       refY="0"
       refX="0"
       id="Arrow2Lend"
       style="overflow:visible">
      <path
         id="path4026"
         style="fill-rule:evenodd;stroke-width:0.625;stroke-linejoin:round"
         d="M 8.7185878,4.0337352 -2.2072895,0.01601326 8.7185884,-4.0017078 c -1.7454984,2.3720609 -1.7354408,5.6174519 -6e-7,8.035443 z"
         transform="matrix(-1.1,0,0,-1.1,-1.1,0)"
         inkscape:connector-curvature="0" />
    </marker>
    <marker
       inkscape:stockid="Arrow1Lend"
       orient="auto"
       refY="0"
       refX="0"
       id="Arrow1Lend"
       style="overflow:visible">
      <path
         id="path4008"
         d="M 0,0 5,-5 -12.5,0 5,5 0,0 z"
         style="fill-rule:evenodd;stroke:#000000;stroke-width:1pt"
         transform="matrix(-0.8,0,0,-0.8,-10,0)"
         inkscape:connector-curvature="0" />
    </marker>
    <marker
       inkscape:stockid="Arrow1Lstart"
       orient="auto"
       refY="0"
       refX="0"
       id="Arrow1Lstart"
       style="overflow:visible">
      <path
         id="path4005"
         d="M 0,0 5,-5 -12.5,0 5,5 0,0 z"
         style="fill-rule:evenodd;stroke:#000000;stroke-width:1pt"
         transform="matrix(0.8,0,0,0.8,10,0)"
         inkscape:connector-curvature="0" />
    </marker>
  </defs>
  <sodipodi:namedview
     id="base"
     pagecolor="#ffffff"
     bordercolor="#666666"
     borderopacity="1.0"
     inkscape:pageopacity="0.0"
     inkscape:pageshadow="2"
     inkscape:zoom="8"
     inkscape:cx="54.680392"
     inkscape:cy="32.364555"
     inkscape:document-units="px"
     inkscape:current-layer="layer1"
     showgrid="false"
     inkscape:window-width="1366"
     inkscape:window-height="702"
     inkscape:window-x="0"
     inkscape:window-y="27"
     inkscape:window-maximized="1" />
  <metadata
     id="metadata7">
    <rdf:RDF>
      <cc:Work
         rdf:about="">
        <dc:format>image/svg+xml</dc:format>
        <dc:type
           rdf:resource="http://purl.org/dc/dcmitype/StillImage" />
        <dc:title></dc:title>
      </cc:Work>
    </rdf:RDF>
  </metadata>
  <g
     inkscape:label="Layer 1"
     inkscape:groupmode="layer"
     id="layer1"
     transform="translate(0,-987.36218)">
    <rect
       style="color:#000000;fill:#008000;stroke:none;stroke-width:2;marker:none;visibility:visible;display:inline;overflow:visible;enable-background:accumulate;stroke-miterlimit:4;stroke-dasharray:none"
       id="rect5927-3"
       width="30.374779"
       height="18.772646"
       x="53.382866"
       y="1031.408"
       ry="2.9835305" />
    <rect
       style="color:#000000;fill:#ffffff;stroke:none;stroke-width:2;stroke-linecap:butt;stroke-linejoin:miter;stroke-miterlimit:4;stroke-opacity:1;stroke-dasharray:none;stroke-dashoffset:0;marker:none;visibility:visible;display:inline;overflow:visible;enable-background:accumulate"
       id="rect5927"
       width="23.715019"
       height="14.656688"
       x="56.712746"
       y="1033.4661" />
    <path
       style="font-size:40px;font-style:normal;font-variant:normal;font-weight:bold;font-stretch:condensed;line-height:125%;letter-spacing:0px;word-spacing:0px;fill:#00ff00;fill-opacity:1;stroke:#000000;font-family:Geared Slab;-inkscape-font-specification:Geared Slab Bold Condensed;stroke-opacity:0.49803922;stroke-width:1.50000000000000000;stroke-miterlimit:4;stroke-dasharray:none"
       d="M 71.78125 12.09375 L 71.78125 14.1875 C 71.781249 14.6675 71.87583 15.0817 72.0625 15.375 C 72.249166 15.6417 72.442915 15.84 72.65625 16 C 72.922915 16.16 73.06708 16.39885 73.09375 16.71875 L 73.09375 37.46875 C 73.06708 37.65545 73.0175 37.79955 72.9375 37.90625 C 72.88416 37.98625 72.825415 38.07625 72.71875 38.15625 C 72.505415 38.28955 72.275832 38.5192 72.0625 38.8125 C 71.87583 39.1058 71.781249 39.4933 71.78125 40 L 71.78125 42 L 79.15625 42 L 79.15625 40.03125 C 79.156242 39.52455 79.05707 39.13705 78.84375 38.84375 C 78.657076 38.55045 78.467909 38.3208 78.28125 38.1875 C 78.14791 38.0808 78.01749 37.9817 77.9375 37.875 C 77.85749 37.7683 77.84374 37.5792 77.84375 37.3125 L 77.84375 13.03125 C 77.843743 12.39131 77.51041 12.09378 76.84375 12.09375 L 71.78125 12.09375 z M 28.0625 21.84375 C 26.089161 21.84385 24.472079 22.41125 23.21875 23.53125 C 21.992082 24.65125 21.374999 26.22795 21.375 28.28125 L 21.375 35.8125 C 21.374999 37.8658 21.992082 39.4425 23.21875 40.5625 C 24.472079 41.6558 26.089161 42.1875 28.0625 42.1875 C 29.022491 42.1875 29.88749 42.0791 30.6875 41.8125 C 31.487489 41.5191 32.194571 41.10045 32.78125 40.59375 C 33.367903 40.08705 33.804986 39.47 34.125 38.75 C 34.444986 38.03 34.624986 37.25955 34.625 36.40625 L 34.625 34.09375 L 32.125 34.09375 C 31.404989 34.09375 30.873323 34.2967 30.5 34.75 C 30.153323 35.1767 29.96874 35.6992 29.96875 36.3125 L 29.96875 36.6875 C 29.96874 37.1675 29.734574 37.51 29.28125 37.75 C 28.854575 37.9633 28.462492 38.09375 28.0625 38.09375 C 27.849159 38.09375 27.619576 38.05725 27.40625 38.03125 C 27.19291 37.97825 26.994577 37.8833 26.78125 37.75 C 26.594577 37.59 26.414577 37.39625 26.28125 37.15625 C 26.17458 36.88955 26.124994 36.5517 26.125 36.125 L 26.125 27.5625 C 26.124994 27.2425 26.21041 26.9992 26.34375 26.8125 C 26.477077 26.5992 26.625827 26.4192 26.8125 26.3125 C 27.025826 26.1792 27.22416 26.08425 27.4375 26.03125 C 27.677492 25.97825 27.902492 25.96875 28.0625 25.96875 C 28.409158 25.96875 28.792075 26.0725 29.21875 26.3125 C 29.645407 26.5258 29.84374 26.94455 29.84375 27.53125 C 29.84374 28.09125 30.028323 28.5733 30.375 29 C 30.748323 29.4 31.279989 29.59375 32 29.59375 L 34.625 29.59375 L 34.625 27.53125 C 34.624986 26.81125 34.444986 26.1042 34.125 25.4375 C 33.804986 24.7442 33.367903 24.12705 32.78125 23.59375 C 32.221238 23.06045 31.514155 22.6325 30.6875 22.3125 C 29.88749 21.9925 29.022491 21.84385 28.0625 21.84375 z M 44.09375 21.84375 C 42.947077 21.84385 41.987494 21.9833 41.1875 22.25 C 40.387496 22.5167 39.72083 22.895 39.1875 23.375 C 38.680831 23.8283 38.302498 24.36455 38.0625 25.03125 C 37.822498 25.67125 37.718748 26.3783 37.71875 27.125 L 37.71875 28.15625 L 40.15625 28.15625 C 40.876245 28.15625 41.358328 28.01205 41.625 27.71875 C 41.882556 27.43545 42.02245 27.1583 42.03125 26.875 C 42.031244 26.635 42.08541 26.44125 42.21875 26.28125 C 42.378744 26.12125 42.563327 25.98625 42.75 25.90625 C 42.963327 25.79955 43.16166 25.7405 43.375 25.6875 C 43.614993 25.6345 43.844576 25.59375 44.03125 25.59375 C 44.217909 25.59375 44.411658 25.6345 44.625 25.6875 C 44.864991 25.7145 45.094574 25.7685 45.28125 25.875 C 45.494574 25.955 45.647907 26.09455 45.78125 26.28125 C 45.91457 26.46795 45.99999 26.70205 46 26.96875 L 46 27.96875 C 45.893324 28.12875 45.713324 28.2775 45.5 28.4375 C 45.286658 28.5708 45.002908 28.75545 44.65625 28.96875 C 44.336242 29.15545 43.908326 29.3492 43.375 29.5625 C 42.868327 29.7492 42.287077 29.9475 41.59375 30.1875 C 40.927079 30.4275 40.264996 30.7608 39.625 31.1875 C 39.011664 31.6142 38.484581 32.1817 38.03125 32.875 C 37.604582 33.5417 37.374999 34.40205 37.375 35.46875 L 37.375 35.8125 C 37.374999 36.6658 37.46958 37.4767 37.65625 38.25 C 37.869582 39.0233 38.238748 39.69455 38.71875 40.28125 C 39.198747 40.86795 39.824996 41.3408 40.625 41.6875 C 41.451661 42.0075 42.456244 42.15625 43.65625 42.15625 C 43.922909 42.15625 44.242492 42.14575 44.5625 42.09375 C 44.882491 42.06675 45.175408 41.9816 45.46875 41.875 C 45.78874 41.7683 46.07249 41.66455 46.3125 41.53125 C 46.55249 41.37125 46.741656 41.14625 46.875 40.90625 C 46.92832 41.11955 47.032072 41.35375 47.21875 41.59375 C 47.432072 41.83375 47.711238 41.96875 48.03125 41.96875 L 51.9375 41.96875 L 51.9375 40 C 51.937484 39.4933 51.833734 39.0608 51.59375 38.6875 C 51.380401 38.2875 51.150818 38.0083 50.9375 37.875 C 50.83082 37.795 50.77665 37.69125 50.75 37.53125 C 50.749985 37.37125 50.749985 37.18205 50.75 36.96875 L 50.75 27.125 C 50.749985 25.4983 50.222903 24.21455 49.15625 23.28125 C 48.116238 22.32125 46.41374 21.84385 44.09375 21.84375 z M 63.4375 21.84375 C 62.87749 21.84385 62.359574 21.8937 61.90625 22 C 61.452908 22.1067 61.069992 22.2417 60.75 22.375 C 60.376659 22.5083 60.043326 22.65705 59.75 22.84375 C 59.72333 22.68375 59.67833 22.5442 59.625 22.4375 C 59.57166 22.3308 59.51291 22.23625 59.40625 22.15625 C 59.32624 22.04965 59.182077 22 58.96875 22 L 53.625 22 L 53.625 24.125 C 53.624999 24.605 53.71958 24.98795 53.90625 25.28125 C 54.092915 25.54795 54.286665 25.74625 54.5 25.90625 C 54.633331 25.98625 54.76375 26.1258 54.84375 26.3125 C 54.95041 26.4725 54.999998 26.84625 55 27.40625 L 55 37.46875 C 54.97333 37.73545 54.92375 37.92 54.84375 38 C 54.79041 38.08 54.695831 38.17455 54.5625 38.28125 C 54.349165 38.41455 54.119582 38.61295 53.90625 38.90625 C 53.71958 39.19955 53.624999 39.6183 53.625 40.125 L 53.625 42 L 61.0625 42 L 61.125 40.15625 C 61.124991 39.64955 60.994575 39.26205 60.78125 38.96875 C 60.594575 38.67545 60.400826 38.44125 60.1875 38.28125 C 60.054159 38.20125 59.95499 38.1067 59.875 38 C 59.79499 37.8933 59.749993 37.7042 59.75 37.4375 L 59.75 26.90625 C 59.883326 26.71955 60.032076 26.5708 60.21875 26.4375 C 60.378742 26.3042 60.603742 26.205 60.84375 26.125 C 61.110408 26.018 61.407908 25.96875 61.78125 25.96875 C 62.714573 25.96875 63.367489 26.21205 63.6875 26.71875 C 64.007489 27.22545 64.156238 27.9417 64.15625 28.875 L 64.15625 39.3125 C 64.156238 40.0058 64.340822 40.6275 64.6875 41.1875 C 65.060821 41.7208 65.502487 42 66.0625 42 L 70.03125 42 L 70.03125 40.15625 C 70.031233 39.64955 69.97707 39.26205 69.84375 38.96875 C 69.7104 38.67545 69.5304 38.44125 69.34375 38.28125 C 69.2104 38.20125 69.11123 38.1067 69.03125 38 C 68.95123 37.8933 68.906234 37.70875 68.90625 37.46875 L 68.90625 28.71875 C 68.906234 27.70545 68.80707 26.75955 68.59375 25.90625 C 68.407068 25.05295 68.078318 24.3367 67.625 23.75 C 67.198319 23.1367 66.662069 22.695 65.96875 22.375 C 65.275404 22.0283 64.424155 21.84385 63.4375 21.84375 z M 12.09375 21.875 C 11.107076 21.875 10.206244 22.01 9.40625 22.25 C 8.606245 22.4633 7.934996 22.7608 7.375 23.1875 C 6.814997 23.6142 6.351248 24.13205 6.03125 24.71875 C 5.737915 25.27875 5.593748 25.8958 5.59375 26.5625 L 5.59375 27.8125 C 5.593748 28.6658 5.787498 29.3867 6.1875 30 C 6.614164 30.5867 7.13208 31.1092 7.71875 31.5625 C 8.332079 32.0158 8.998745 32.4033 9.71875 32.75 C 10.438744 33.0967 11.100826 33.4658 11.6875 33.8125 C 12.300825 34.1325 12.787491 34.47045 13.1875 34.84375 C 13.614157 35.19045 13.84374 35.61375 13.84375 36.09375 L 13.84375 36.5625 C 13.84374 37.1492 13.64999 37.5817 13.25 37.875 C 12.849991 38.1417 12.336658 38.28125 11.75 38.28125 C 11.109993 38.28125 10.623327 38.0967 10.25 37.75 C 9.876661 37.3767 9.687494 36.9892 9.6875 36.5625 L 9.6875 36.53125 C 9.687494 35.78455 9.457911 35.21705 9.03125 34.84375 C 8.631245 34.44375 8.059163 34.25 7.3125 34.25 L 5.1875 34.25 L 5.1875 36.5625 C 5.187499 37.4425 5.372082 38.21295 5.71875 38.90625 C 6.065415 39.57295 6.542914 40.145 7.15625 40.625 C 7.76958 41.105 8.485829 41.4833 9.3125 41.75 C 10.165827 41.99 11.071243 42.125 12.03125 42.125 C 12.964574 42.125 13.82499 42.026 14.625 41.8125 C 15.424989 41.5725 16.132071 41.2033 16.71875 40.75 C 17.305403 40.27 17.773736 39.6933 18.09375 39 C 18.440402 38.3067 18.593735 37.4958 18.59375 36.5625 L 18.59375 35.375 C 18.593735 34.5217 18.395402 33.76955 17.96875 33.15625 C 17.54207 32.54295 17.014987 32.0158 16.375 31.5625 C 15.761655 31.0825 15.059156 30.6592 14.3125 30.3125 C 13.59249 29.9392 12.921241 29.60125 12.28125 29.28125 C 11.667909 28.96125 11.14541 28.6325 10.71875 28.3125 C 10.292077 27.9925 10.093744 27.6142 10.09375 27.1875 L 10.09375 27.15625 C 10.093744 26.70295 10.23791 26.365 10.53125 26.125 C 10.851243 25.8583 11.243326 25.71875 11.75 25.71875 C 12.203325 25.71875 12.667075 25.8583 13.09375 26.125 C 13.520407 26.3917 13.71874 26.86455 13.71875 27.53125 C 13.71874 28.09125 13.95749 28.52375 14.4375 28.84375 C 14.917489 29.16375 15.579572 29.3125 16.40625 29.3125 L 18.3125 29.3125 L 18.3125 27.40625 C 18.312486 26.68625 18.168319 25.9792 17.875 25.3125 C 17.60832 24.6458 17.184987 24.0692 16.625 23.5625 C 16.091655 23.0558 15.460822 22.6683 14.6875 22.375 C 13.914157 22.055 13.053741 21.875 12.09375 21.875 z M 80.53125 22 L 80.53125 24.28125 C 80.531249 24.73455 80.616666 25.11295 80.75 25.40625 C 80.909999 25.69955 81.099165 25.89795 81.3125 26.03125 C 81.579165 26.21795 81.772915 26.6458 81.90625 27.3125 C 81.932915 27.3925 81.9825 27.72125 82.0625 28.28125 C 82.169164 28.84125 82.308748 29.55295 82.46875 30.40625 C 82.628747 31.23295 82.777497 32.14295 82.9375 33.15625 L 83.5 36.125 C 83.686663 37.1117 83.871246 38.02625 84.03125 38.90625 C 84.191246 39.75955 84.299579 40.4667 84.40625 41 C 84.539579 41.6666 84.917912 42 85.53125 42 L 87.21875 42 L 85.40625 50.90625 C 85.36462 51.051889 85.277856 51.123084 85.1875 51.1875 L 73.8125 51.1875 C 74.05162 50.454236 74.400899 49.769291 74.875 49.125 L 62.875 53.53125 L 74.875 57.96875 C 74.391515 57.295108 74.051962 56.541257 73.8125 55.78125 L 83.59375 55.78125 L 85.875 55.78125 L 87.34375 55.78125 C 87.797075 55.78125 88.166241 55.6325 88.40625 55.3125 C 88.672907 55.0191 88.866657 54.60035 89 54.09375 C 89.266657 53.13375 89.550406 51.985 89.84375 50.625 C 90.137072 49.2916 91.077072 44.2075 91.34375 42.6875 C 91.637072 41.1675 91.920821 39.60455 92.1875 38.03125 C 92.480821 36.45795 92.728737 34.97125 92.96875 33.53125 C 93.235403 32.09125 93.474153 30.7625 93.6875 29.5625 C 93.927486 28.3625 94.15706 27.4075 94.34375 26.6875 C 94.37044 26.6075 94.41545 26.51295 94.46875 26.40625 C 94.57541 26.19295 94.67 26.053 94.75 26 C 94.93666 25.8667 95.0854 25.6683 95.21875 25.375 C 95.37874 25.0817 95.46874 24.6583 95.46875 24.125 L 95.46875 22 L 92.0625 22 C 91.395822 22 90.967906 22.14875 90.78125 22.46875 C 90.594573 22.76205 90.409989 23.27545 90.25 23.96875 C 90.223323 24.04875 90.17374 24.29205 90.09375 24.71875 C 90.040406 25.11875 89.945823 25.64125 89.8125 26.28125 C 89.705823 26.92125 89.602074 27.6375 89.46875 28.4375 C 89.335407 29.2375 89.195824 30.0483 89.0625 30.875 C 88.742491 32.795 88.368741 34.97955 87.96875 37.40625 C 87.595409 34.89955 87.262076 32.625 86.96875 30.625 C 86.83541 29.7717 86.727076 28.95625 86.59375 28.15625 C 86.487077 27.32955 86.35666 26.60875 86.25 25.96875 C 86.143327 25.30205 86.08458 24.775 86.03125 24.375 C 85.97791 23.9483 85.937494 23.678 85.9375 23.625 C 85.857494 23.1183 85.708744 22.7308 85.46875 22.4375 C 85.228745 22.1442 84.899995 22 84.5 22 L 80.53125 22 z M 46 31.75 L 46 38.15625 C 45.813324 38.26295 45.624157 38.36205 45.4375 38.46875 C 45.010825 38.65575 44.547075 38.75 44.09375 38.75 C 43.480409 38.75 42.998327 38.5967 42.625 38.25 C 42.251661 37.8767 42.062494 37.26875 42.0625 36.46875 L 42.0625 35.53125 C 42.062494 34.62455 42.296661 33.9625 42.75 33.5625 C 43.203326 33.1625 43.680826 32.8383 44.1875 32.625 C 44.427492 32.5183 44.661658 32.4192 44.875 32.3125 C 45.088324 32.2058 45.277491 32.11125 45.4375 32.03125 L 46 31.75 z "
       transform="translate(0,987.36218)"
       id="path2990" />
    <g
       style="fill:#00ff00;stroke-width:2;stroke-miterlimit:4;stroke-dasharray:none"
       id="g3017" />
    <path
       inkscape:connector-curvature="0"
       style="font-size:40px;font-style:normal;font-variant:normal;font-weight:bold;font-stretch:condensed;line-height:125%;letter-spacing:0px;word-spacing:0px;fill:#00ff00;fill-opacity:1;stroke:none;stroke-opacity:1;font-family:Geared Slab;-inkscape-font-specification:Geared Slab Bold Condensed"
       d="m 71.78125,999.45593 0,2.09377 c -10e-7,0.48 0.09458,0.8942 0.28125,1.1875 0.186666,0.2667 0.380415,0.465 0.59375,0.625 0.266665,0.16 0.41083,0.3988 0.4375,0.7187 l 0,20.7501 c -0.02667,0.1866 -0.07625,0.3307 -0.15625,0.4375 -0.05334,0.08 -0.112085,0.1699 -0.21875,0.25 -0.213335,0.1333 -0.442918,0.3628 -0.65625,0.6562 -0.18667,0.2933 -0.281251,0.6808 -0.28125,1.1875 l 0,2 7.375,0 0,-1.9687 c -8e-6,-0.5068 -0.09918,-0.8943 -0.3125,-1.1875 -0.186674,-0.2934 -0.375841,-0.5231 -0.5625,-0.6563 -0.13334,-0.1068 -0.26376,-0.2058 -0.34375,-0.3125 -0.08001,-0.1068 -0.09376,-0.2958 -0.09375,-0.5625 l 0,-24.2813 c -7e-6,-0.63991 -0.33334,-0.93744 -1,-0.93747 l -5.0625,0 z m -43.71875,9.74997 c -1.973339,10e-5 -3.590421,0.5675 -4.84375,1.6875 -1.226668,1.12 -1.843751,2.6967 -1.84375,4.75 l 0,7.5312 c -1e-6,2.0534 0.617082,3.6301 1.84375,4.7501 1.253329,1.0933 2.870411,1.625 4.84375,1.625 0.959991,0 1.82499,-0.1085 2.625,-0.375 0.799989,-0.2934 1.507071,-0.712 2.09375,-1.2187 0.586653,-0.5068 1.023736,-1.1238 1.34375,-1.8438 0.319986,-0.72 0.499986,-1.4905 0.5,-2.3438 l 0,-2.3125 -2.5,0 c -0.720011,0 -1.251677,0.2029 -1.625,0.6562 -0.346677,0.4267 -0.53126,0.9492 -0.53125,1.5625 l 0,0.3751 c -10e-6,0.48 -0.234176,0.8225 -0.6875,1.0625 -0.426675,0.2132 -0.818758,0.3438 -1.21875,0.3438 -0.213341,0 -0.442924,-0.037 -0.65625,-0.062 -0.21334,-0.053 -0.411673,-0.148 -0.625,-0.2813 -0.186673,-0.16 -0.366673,-0.3537 -0.5,-0.5937 -0.10667,-0.2667 -0.156256,-0.6047 -0.15625,-1.0314 l 0,-8.5625 c -6e-6,-0.32 0.08541,-0.5633 0.21875,-0.75 0.133327,-0.2133 0.282077,-0.3933 0.46875,-0.5 0.213326,-0.1333 0.41166,-0.2282 0.625,-0.2812 0.239992,-0.053 0.464992,-0.062 0.625,-0.062 0.346658,0 0.729575,0.1037 1.15625,0.3437 0.426657,0.2133 0.62499,0.6321 0.625,1.2188 -10e-6,0.56 0.184573,1.042 0.53125,1.4687 0.373323,0.4 0.904989,0.5938 1.625,0.5938 l 2.625,0 0,-2.0625 c -1.4e-5,-0.72 -0.180014,-1.4271 -0.5,-2.0938 -0.320014,-0.6933 -0.757097,-1.3104 -1.34375,-1.8437 -0.560012,-0.5333 -1.267095,-0.9612 -2.09375,-1.2812 -0.80001,-0.32 -1.665009,-0.4687 -2.625,-0.4688 z m 16.03125,0 c -1.146673,10e-5 -2.106256,0.1396 -2.90625,0.4063 -0.800004,0.2667 -1.46667,0.645 -2,1.125 -0.506669,0.4533 -0.885002,0.9895 -1.125,1.6562 -0.240002,0.64 -0.343752,1.347 -0.34375,2.0937 l 0,1.0313 2.4375,0 c 0.719995,0 1.202078,-0.1442 1.46875,-0.4375 0.257556,-0.2833 0.39745,-0.5605 0.40625,-0.8438 -6e-6,-0.24 0.05416,-0.4337 0.1875,-0.5937 0.159994,-0.16 0.344577,-0.295 0.53125,-0.375 0.213327,-0.1067 0.41166,-0.1658 0.625,-0.2188 0.239993,-0.053 0.469576,-0.094 0.65625,-0.094 0.186659,0 0.380408,0.041 0.59375,0.094 0.239991,0.027 0.469574,0.081 0.65625,0.1875 0.213324,0.08 0.366657,0.2196 0.5,0.4063 0.13332,0.1867 0.21874,0.4208 0.21875,0.6875 l 0,1 c -0.106676,0.16 -0.286676,0.3087 -0.5,0.4687 -0.213342,0.1333 -0.497092,0.318 -0.84375,0.5313 -0.320008,0.1867 -0.747924,0.3804 -1.28125,0.5937 -0.506673,0.1867 -1.087923,0.385 -1.78125,0.625 -0.666671,0.24 -1.328754,0.5733 -1.96875,1 -0.613336,0.4267 -1.140419,0.9942 -1.59375,1.6875 -0.426668,0.6667 -0.656251,1.5271 -0.65625,2.5938 l 0,0.3437 c -10e-7,0.8534 0.09458,1.6643 0.28125,2.4376 0.213332,0.7732 0.582498,1.4446 1.0625,2.0313 0.479997,0.5866 1.106246,1.0594 1.90625,1.4062 0.826661,0.32 1.831244,0.4688 3.03125,0.4688 0.266659,0 0.586242,-0.01 0.90625,-0.062 0.319991,-0.027 0.612908,-0.1123 0.90625,-0.2188 0.31999,-0.1068 0.60374,-0.2105 0.84375,-0.3437 0.23999,-0.1601 0.429156,-0.385 0.5625,-0.625 0.05332,0.2133 0.157072,0.4474 0.34375,0.6875 0.213322,0.24 0.492488,0.375 0.8125,0.375 l 3.90625,0 0,-1.9688 c -1.6e-5,-0.5068 -0.103766,-0.9393 -0.34375,-1.3125 -0.213349,-0.4 -0.442932,-0.6792 -0.65625,-0.8125 -0.10668,-0.08 -0.16085,-0.1837 -0.1875,-0.3437 -1.5e-5,-0.1601 -1.5e-5,-0.3492 0,-0.5625 l 0,-9.8439 c -1.5e-5,-1.6267 -0.527097,-2.9104 -1.59375,-3.8437 -1.040012,-0.96 -2.74251,-1.4374 -5.0625,-1.4375 z m 19.34375,0 c -0.56001,10e-5 -1.077926,0.05 -1.53125,0.1563 -0.453342,0.1067 -0.836258,0.2417 -1.15625,0.375 -0.373341,0.1333 -0.706674,0.282 -1,0.4687 -0.02667,-0.16 -0.07167,-0.2995 -0.125,-0.4062 -0.05334,-0.1067 -0.11209,-0.2013 -0.21875,-0.2813 -0.08001,-0.1066 -0.224173,-0.1562 -0.4375,-0.1562 l -5.34375,0 0,2.125 c -10e-7,0.4799 0.09458,0.8629 0.28125,1.1562 0.186665,0.2667 0.380415,0.465 0.59375,0.625 0.133331,0.08 0.26375,0.2195 0.34375,0.4062 0.10666,0.16 0.156248,0.5338 0.15625,1.0938 l 0,10.0626 c -0.02667,0.2667 -0.07625,0.4512 -0.15625,0.5312 -0.05334,0.08 -0.147919,0.1746 -0.28125,0.2813 -0.213335,0.1333 -0.442918,0.3316 -0.65625,0.625 -0.18667,0.2932 -0.281251,0.712 -0.28125,1.2187 l 0,1.875 7.4375,0 0.0625,-1.8437 c -9e-6,-0.5068 -0.130425,-0.8943 -0.34375,-1.1875 -0.186675,-0.2934 -0.380424,-0.5276 -0.59375,-0.6875 -0.133341,-0.08 -0.23251,-0.1747 -0.3125,-0.2813 -0.08001,-0.1068 -0.125007,-0.2958 -0.125,-0.5625 l 0,-10.5313 c 0.133326,-0.1867 0.282076,-0.3355 0.46875,-0.4688 0.159992,-0.1333 0.384992,-0.2325 0.625,-0.3125 0.266658,-0.107 0.564158,-0.1562 0.9375,-0.1562 0.933323,0 1.586239,0.2433 1.90625,0.75 0.319989,0.5067 0.468738,1.2229 0.46875,2.1562 l 0,10.4376 c -1.2e-5,0.6932 0.184572,1.315 0.53125,1.875 0.373321,0.5333 0.814987,0.8125 1.375,0.8125 l 3.96875,0 0,-1.8437 c -1.7e-5,-0.5068 -0.05418,-0.8943 -0.1875,-1.1875 -0.13335,-0.2934 -0.31335,-0.5276 -0.5,-0.6875 -0.13335,-0.08 -0.23252,-0.1747 -0.3125,-0.2813 -0.08002,-0.1068 -0.125016,-0.2913 -0.125,-0.5312 l 0,-8.7501 c -1.6e-5,-1.0133 -0.09918,-1.9592 -0.3125,-2.8125 -0.186682,-0.8533 -0.515432,-1.5696 -0.96875,-2.1562 -0.426681,-0.6133 -0.962931,-1.055 -1.65625,-1.375 -0.693346,-0.3467 -1.544595,-0.5312 -2.53125,-0.5313 z m -51.34375,0.031 c -0.986674,0 -1.887506,0.135 -2.6875,0.375 -0.800005,0.2133 -1.471254,0.5108 -2.03125,0.9375 -0.560003,0.4267 -1.023752,0.9446 -1.34375,1.5313 -0.293335,0.56 -0.437502,1.177 -0.4375,1.8437 l 0,1.25 c -2e-6,0.8533 0.193748,1.5742 0.59375,2.1875 0.426664,0.5867 0.94458,1.1092 1.53125,1.5625 0.613329,0.4533 1.279995,0.8408 2,1.1875 0.719994,0.3467 1.382076,0.7158 1.96875,1.0625 0.613325,0.32 1.099991,0.658 1.5,1.0313 0.426657,0.3467 0.65624,0.77 0.65625,1.25 l 0,0.4687 c -10e-6,0.5867 -0.19376,1.0192 -0.59375,1.3125 -0.400009,0.2667 -0.913342,0.4063 -1.5,0.4063 -0.640007,0 -1.126673,-0.1846 -1.5,-0.5313 -0.373339,-0.3733 -0.562506,-0.7608 -0.5625,-1.1875 l 0,-0.031 c -6e-6,-0.7467 -0.229589,-1.3142 -0.65625,-1.6875 -0.400005,-0.4 -0.972087,-0.5938 -1.71875,-0.5938 l -2.125,0 0,2.3125 c -1e-6,0.88 0.184582,1.6505 0.53125,2.3438 0.346665,0.6667 0.824164,1.2387 1.4375,1.7187 0.61333,0.48 1.329579,0.8583 2.15625,1.125 0.853327,0.24 1.758743,0.375 2.71875,0.375 0.933324,0 1.79374,-0.099 2.59375,-0.3125 0.799989,-0.24 1.507071,-0.6092 2.09375,-1.0625 0.586653,-0.48 1.054986,-1.0567 1.375,-1.75 0.346652,-0.6933 0.499985,-1.5042 0.5,-2.4375 l 0,-1.1875 c -1.5e-5,-0.8533 -0.198348,-1.6054 -0.625,-2.2187 -0.42668,-0.6133 -0.953763,-1.1405 -1.59375,-1.5938 -0.613345,-0.48 -1.315844,-0.9033 -2.0625,-1.25 -0.72001,-0.3733 -1.391259,-0.7112 -2.03125,-1.0312 -0.613341,-0.32 -1.13584,-0.6488 -1.5625,-0.9688 -0.426673,-0.32 -0.625006,-0.6983 -0.625,-1.125 l 0,-0.031 c -6e-6,-0.4533 0.14416,-0.7913 0.4375,-1.0313 0.319993,-0.2667 0.712076,-0.4062 1.21875,-0.4062 0.453325,0 0.917075,0.1395 1.34375,0.4062 0.426657,0.2667 0.62499,0.7396 0.625,1.4063 -10e-6,0.56 0.23874,0.9925 0.71875,1.3125 0.479989,0.32 1.142072,0.4687 1.96875,0.4687 l 1.90625,0 0,-1.9062 c -1.4e-5,-0.72 -0.144181,-1.4271 -0.4375,-2.0938 -0.26668,-0.6667 -0.690013,-1.2433 -1.25,-1.75 -0.533345,-0.5067 -1.164178,-0.8942 -1.9375,-1.1875 -0.773343,-0.32 -1.633759,-0.5 -2.59375,-0.5 z m 68.4375,0.125 0,2.2813 c -10e-7,0.4533 0.08542,0.8317 0.21875,1.125 0.159999,0.2933 0.349165,0.4917 0.5625,0.625 0.266665,0.1867 0.460415,0.6145 0.59375,1.2812 0.02666,0.08 0.07625,0.4088 0.15625,0.9688 0.106664,0.56 0.246248,1.2717 0.40625,2.125 0.159997,0.8267 0.308747,1.7367 0.46875,2.75 l 0.5625,2.9687 c 0.186663,0.9867 0.371246,1.9013 0.53125,2.7813 0.159996,0.8533 0.268329,1.5604 0.375,2.0937 0.133329,0.6666 0.511662,1 1.125,1 l 1.6875,0 -1.8125,8.9063 c -0.04163,0.1456 -0.128394,0.2168 -0.21875,0.2812 l -11.375,0 c 0.23912,-0.7332 0.588399,-1.4182 1.0625,-2.0625 l -12,4.4063 12,4.4375 c -0.483485,-0.6737 -0.823038,-1.4275 -1.0625,-2.1875 l 9.78125,0 2.28125,0 1.46875,0 c 0.453325,0 0.822491,-0.1488 1.0625,-0.4688 0.266657,-0.2934 0.460407,-0.7121 0.59375,-1.2187 0.266657,-0.96 0.550406,-2.1088 0.84375,-3.4688 0.293322,-1.3334 1.233322,-6.4175 1.5,-7.9375 0.293322,-1.52 0.577071,-3.0829 0.84375,-4.6562 0.293321,-1.5733 0.541237,-3.06 0.78125,-4.5 0.266653,-1.44 0.505403,-2.7688 0.71875,-3.9688 0.239986,-1.2 0.46956,-2.155 0.65625,-2.875 0.02669,-0.08 0.0717,-0.1745 0.125,-0.2812 0.10666,-0.2133 0.20125,-0.3533 0.28125,-0.4063 0.18666,-0.1333 0.3354,-0.3317 0.46875,-0.625 0.15999,-0.2933 0.24999,-0.7167 0.25,-1.25 l 0,-2.125 -3.40625,0 c -0.666678,0 -1.094594,0.1488 -1.28125,0.4688 -0.186677,0.2933 -0.371261,0.8067 -0.53125,1.5 -0.02668,0.08 -0.07626,0.3233 -0.15625,0.75 -0.05334,0.4 -0.147927,0.9225 -0.28125,1.5625 -0.106677,0.64 -0.210426,1.3562 -0.34375,2.1562 -0.133343,0.8 -0.272926,1.6108 -0.40625,2.4375 -0.320009,1.92 -0.693759,4.1046 -1.09375,6.5313 -0.373341,-2.5067 -0.706674,-4.7813 -1,-6.7813 -0.13334,-0.8533 -0.241674,-1.6687 -0.375,-2.4687 -0.106673,-0.8267 -0.23709,-1.5475 -0.34375,-2.1875 -0.106673,-0.6667 -0.16542,-1.1938 -0.21875,-1.5938 -0.05334,-0.4267 -0.09376,-0.697 -0.09375,-0.75 -0.08001,-0.5067 -0.228756,-0.8942 -0.46875,-1.1875 -0.240005,-0.2933 -0.568755,-0.4375 -0.96875,-0.4375 l -3.96875,0 z m -34.53125,9.75 0,6.4063 c -0.186676,0.1067 -0.375843,0.2058 -0.5625,0.3125 -0.426675,0.187 -0.890425,0.2812 -1.34375,0.2812 -0.613341,0 -1.095423,-0.1533 -1.46875,-0.5 -0.373339,-0.3733 -0.562506,-0.9812 -0.5625,-1.7812 l 0,-0.9375 c -6e-6,-0.9067 0.234161,-1.5688 0.6875,-1.9688 0.453326,-0.4 0.930826,-0.7242 1.4375,-0.9375 0.239992,-0.1067 0.474158,-0.2058 0.6875,-0.3125 0.213324,-0.1067 0.402491,-0.2012 0.5625,-0.2812 L 46,1019.1121 z"
       id="path2990-2" />
  </g>
</svg>
